<svg width="300" height="300" viewBox="0 0 300 300" xmlns="http://www.w3.org/2000/svg"><title>logo</title><g fill="#353534" fill-rule="evenodd"><path d="M22 278h256V22H22v256zM0 0h300v300H0V0z"/><path d="M81.082 208.078c1.073 0 1.95-.425 2.632-1.274l1.4 1.442c-1.11 1.25-2.42 1.876-3.927 1.876-1.507 0-2.749-.476-3.724-1.428-.975-.952-1.463-2.154-1.463-3.605s.497-2.662 1.491-3.633c.994-.97 2.21-1.456 3.647-1.456 1.605 0 2.95.611 4.032 1.834l-1.358 1.54c-.69-.859-1.55-1.288-2.576-1.288-.821 0-1.524.268-2.107.805-.583.537-.875 1.26-.875 2.17 0 .91.275 1.64.826 2.191.55.55 1.218.826 2.002.826zm13.692-4.606c0 1.568-.62 2.58-1.862 3.038l2.478 3.5h-2.688l-2.17-3.122H89.02v3.122h-2.184v-9.786h3.71c1.521 0 2.606.257 3.255.77s.973 1.34.973 2.478zm-2.632 1.162c.27-.243.406-.628.406-1.155s-.14-.889-.42-1.085c-.28-.196-.77-.294-1.47-.294H89.02v2.898h1.596c.747 0 1.255-.121 1.526-.364zm11.928-4.41v1.946h-4.872v2.016h4.382v1.862h-4.382v2.03h5.026v1.932h-7.21v-9.786h7.056zm9.072 9.786l-.91-2.114h-4.102l-.91 2.114h-2.324l4.228-9.786h2.114l4.228 9.786h-2.324zm-2.954-6.874l-1.232 2.842h2.45l-1.218-2.842zm9.842-1.022v7.896h-2.184v-7.896h-2.772v-1.89h7.728v1.89h-2.772zm4.368-1.89h2.184v9.786h-2.184v-9.786zm8.204 6.23l2.492-6.23h2.366l-3.934 9.786h-1.848l-3.934-9.786h2.366l2.492 6.23zm13.076-6.23v1.946h-4.872v2.016h4.382v1.862h-4.382v2.03h5.026v1.932h-7.21v-9.786h7.056zm13.272 1.281c.933.854 1.4 2.042 1.4 3.563 0 1.521-.455 2.725-1.365 3.612-.91.887-2.298 1.33-4.165 1.33h-3.346v-9.786h3.458c1.745 0 3.085.427 4.018 1.281zm-1.603 5.817c.537-.504.805-1.237.805-2.198 0-.961-.268-1.701-.805-2.219-.537-.518-1.36-.777-2.471-.777h-1.218v5.95h1.386c.999 0 1.766-.252 2.303-.756zm11.949-7.098v1.946h-4.872v2.016h4.382v1.862h-4.382v2.03h5.026v1.932h-7.21v-9.786h7.056zm4.389 1.953a.844.844 0 0 0-.315.686c0 .285.128.511.385.679.257.168.85.366 1.778.595.929.229 1.65.572 2.163 1.029.513.457.77 1.125.77 2.002 0 .877-.329 1.589-.987 2.135-.658.546-1.524.819-2.597.819-1.55 0-2.945-.574-4.186-1.722l1.302-1.596c1.055.924 2.03 1.386 2.926 1.386.401 0 .716-.086.945-.259a.831.831 0 0 0 .343-.7.816.816 0 0 0-.364-.7c-.243-.173-.723-.348-1.442-.525-1.139-.27-1.972-.623-2.499-1.057-.527-.434-.791-1.115-.791-2.044s.334-1.645 1.001-2.149c.667-.504 1.5-.756 2.499-.756a6.01 6.01 0 0 1 1.96.336 5.249 5.249 0 0 1 1.708.952l-1.106 1.596c-.85-.644-1.727-.966-2.632-.966-.364 0-.651.086-.861.259zm6.643-1.953h2.184v9.786h-2.184v-9.786zm10.948 4.802h2.198v3.472c-.97 1.083-2.315 1.624-4.032 1.624-1.437 0-2.644-.476-3.619-1.428-.975-.952-1.463-2.154-1.463-3.605s.497-2.662 1.491-3.633c.994-.97 2.193-1.456 3.598-1.456 1.405 0 2.625.462 3.661 1.386l-1.134 1.638c-.439-.383-.842-.646-1.211-.791a3.248 3.248 0 0 0-1.197-.217c-.83 0-1.53.282-2.1.847-.57.565-.854 1.309-.854 2.233 0 .924.273 1.664.819 2.219.546.555 1.197.833 1.953.833s1.386-.145 1.89-.434v-2.688zm10.99-4.802h2.184v9.786h-2.184l-4.662-6.132v6.132h-2.184v-9.786h2.044l4.802 6.3v-6.3zm11.648 0v1.946h-4.872v2.016h4.382v1.862h-4.382v2.03h5.026v1.932h-7.21v-9.786h7.056zm10.038 3.248c0 1.568-.62 2.58-1.862 3.038l2.478 3.5h-2.688l-2.17-3.122h-1.512v3.122h-2.184v-9.786h3.71c1.521 0 2.606.257 3.255.77s.973 1.34.973 2.478zm-2.632 1.162c.27-.243.406-.628.406-1.155s-.14-.889-.42-1.085c-.28-.196-.77-.294-1.47-.294h-1.638v2.898h1.596c.747 0 1.255-.121 1.526-.364zm-109.557-21.643H91.474v-35.896L60 92.081h21.98l19.638 33.815 19.64-33.815h21.979l-31.474 55.014v35.896zm99.754-66.72c-5.202-5.722-11.596-8.583-19.183-8.583s-13.981 2.861-19.184 8.584c-5.202 5.722-7.803 12.637-7.803 20.744s2.601 15 7.803 20.68c5.203 5.678 11.597 8.518 19.184 8.518 7.587 0 13.981-2.84 19.183-8.519 5.203-5.68 7.804-12.572 7.804-20.68 0-8.106-2.601-15.02-7.804-20.743zm-19.248 67.63c-13.44 0-24.755-4.486-33.945-13.46-9.191-8.974-13.786-20.137-13.786-33.49 0-13.353 4.595-24.516 13.786-33.49C167.514 94.487 178.829 90 192.269 90c13.44 0 24.754 4.487 33.945 13.461 9.19 8.974 13.786 20.137 13.786 33.49 0 13.353-4.595 24.516-13.786 33.49-9.19 8.974-20.506 13.46-33.945 13.46z"/></g></svg>