<svg width="60" height="60" viewBox="0 0 60 60" xmlns="http://www.w3.org/2000/svg" xmlns:xlink="http://www.w3.org/1999/xlink"><title>logo-small</title><defs><path id="a" d="M0 0h60v60H0z"/><mask id="b" x="0" y="0" width="60" height="60" fill="#fff"><use xlink:href="#a"/></mask></defs><g fill="none" fill-rule="evenodd"><use stroke="#353534" mask="url(#b)" stroke-width="10" xlink:href="#a"/><path d="M22.353 39.598h-4.058V32.42L12 21.416h4.396l3.928 6.763 3.927-6.763h4.396L22.353 32.42v7.18zm19.95-13.344c-1.04-1.144-2.319-1.716-3.836-1.716-1.518 0-2.796.572-3.837 1.716-1.04 1.145-1.56 2.528-1.56 4.15 0 1.62.52 3 1.56 4.135 1.04 1.136 2.32 1.704 3.837 1.704 1.517 0 2.796-.568 3.836-1.704 1.04-1.136 1.561-2.514 1.561-4.136 0-1.621-.52-3.004-1.56-4.149zm-3.85 13.526c-2.687 0-4.95-.897-6.788-2.692-1.838-1.795-2.757-4.027-2.757-6.698 0-2.67.919-4.903 2.757-6.698 1.838-1.795 4.1-2.692 6.789-2.692 2.688 0 4.95.897 6.789 2.692C47.08 25.487 48 27.72 48 30.39c0 2.67-.92 4.903-2.757 6.698-1.838 1.795-4.101 2.692-6.79 2.692z" fill="#353534"/></g></svg>