<?xml version="1.0" encoding="UTF-8"?>
<svg width="60px" height="60px" viewBox="0 0 60 60" version="1.1" xmlns="http://www.w3.org/2000/svg" xmlns:xlink="http://www.w3.org/1999/xlink">
    <!-- Generator: Sketch 41 (35326) - http://www.bohemiancoding.com/sketch -->
    <title>logo-small</title>
    <desc>Created with Sketch.</desc>
    <defs>
        <rect id="path-1" x="0" y="0" width="60" height="60"></rect>
        <mask id="mask-2" maskContentUnits="userSpaceOnUse" maskUnits="objectBoundingBox" x="0" y="0" width="60" height="60" fill="white">
            <use xlink:href="#path-1"></use>
        </mask>
    </defs>
    <g id="Page-1" stroke="none" stroke-width="1" fill="none" fill-rule="evenodd">
        <g id="Desktop-HD" transform="translate(-900.000000, -499.000000)">
            <g id="logo-small" transform="translate(900.000000, 499.000000)">
                <use id="Rectangle-3" stroke="#353534" mask="url(#mask-2)" stroke-width="10" xlink:href="#path-1"></use>
                <path d="M22.3526012,39.5982659 L18.2947977,39.5982659 L18.2947977,32.4190751 L12,21.416185 L16.3959538,21.416185 L20.3236994,28.1791908 L24.2514451,21.416185 L28.6473988,21.416185 L22.3526012,32.4190751 L22.3526012,39.5982659 Z M42.3034682,26.2543353 C41.2630006,25.1098209 39.9841116,24.5375723 38.466763,24.5375723 C36.9494144,24.5375723 35.6705254,25.1098209 34.6300578,26.2543353 C33.5895902,27.3988497 33.0693642,28.7817838 33.0693642,30.4031792 C33.0693642,32.0245746 33.5895902,33.4031735 34.6300578,34.5390173 C35.6705254,35.6748612 36.9494144,36.2427746 38.466763,36.2427746 C39.9841116,36.2427746 41.2630006,35.6748612 42.3034682,34.5390173 C43.3439358,33.4031735 43.8641618,32.0245746 43.8641618,30.4031792 C43.8641618,28.7817838 43.3439358,27.3988497 42.3034682,26.2543353 Z M38.4537572,39.7803468 C35.7658825,39.7803468 33.5028994,38.882957 31.6647399,37.0881503 C29.8265804,35.2933436 28.9075145,33.060707 28.9075145,30.3901734 C28.9075145,27.7196398 29.8265804,25.4870032 31.6647399,23.6921965 C33.5028994,21.8973899 35.7658825,21 38.4537572,21 C41.1416319,21 43.4046151,21.8973899 45.2427746,23.6921965 C47.080934,25.4870032 48,27.7196398 48,30.3901734 C48,33.060707 47.080934,35.2933436 45.2427746,37.0881503 C43.4046151,38.882957 41.1416319,39.7803468 38.4537572,39.7803468 Z" id="YO" fill="#353534"></path>
            </g>
        </g>
    </g>
</svg>