<?xml version="1.0" encoding="UTF-8"?>
<svg width="300px" height="300px" viewBox="0 0 300 300" version="1.1" xmlns="http://www.w3.org/2000/svg" xmlns:xlink="http://www.w3.org/1999/xlink">
    <!-- Generator: Sketch 41 (35326) - http://www.bohemiancoding.com/sketch -->
    <title>logo</title>
    <desc>Created with Sketch.</desc>
    <defs></defs>
    <g id="Page-1" stroke="none" stroke-width="1" fill="none" fill-rule="evenodd">
        <g id="Desktop-HD" transform="translate(-443.000000, -409.000000)" fill="#353534">
            <g id="logo" transform="translate(443.000000, 409.000000)">
                <path d="M22,278 L278,278 L278,22 L22,22 L22,278 Z M0,0 L300,0 L300,300 L0,300 L0,0 Z" id="Rectangle-2"></path>
                <path d="M81.082,208.078 C82.1553387,208.078 83.0326633,207.653338 83.714,206.804 L85.114,208.246 C84.0033278,209.496673 82.6943409,210.122 81.187,210.122 C79.6796591,210.122 78.4383382,209.646005 77.463,208.694 C76.4876618,207.741995 76,206.540341 76,205.089 C76,203.637659 76.496995,202.426672 77.491,201.456 C78.485005,200.485328 79.7006595,200 81.138,200 C82.7433414,200 84.0873279,200.611327 85.17,201.834 L83.812,203.374 C83.1213299,202.515329 82.2626718,202.086 81.236,202.086 C80.4146626,202.086 79.7123363,202.354331 79.129,202.891 C78.5456638,203.427669 78.254,204.150995 78.254,205.061 C78.254,205.971005 78.5293306,206.701331 79.08,207.252 C79.6306694,207.802669 80.2979961,208.078 81.082,208.078 Z M94.774,203.472 C94.774,205.040008 94.1533395,206.052664 92.912,206.51 L95.39,210.01 L92.702,210.01 L90.532,206.888 L89.02,206.888 L89.02,210.01 L86.836,210.01 L86.836,200.224 L90.546,200.224 C92.0673409,200.224 93.1523301,200.480664 93.801,200.994 C94.4496699,201.507336 94.774,202.333328 94.774,203.472 Z M92.142,204.634 C92.412668,204.391332 92.548,204.006336 92.548,203.479 C92.548,202.951664 92.4080014,202.590001 92.128,202.394 C91.8479986,202.197999 91.3580035,202.1 90.658,202.1 L89.02,202.1 L89.02,204.998 L90.616,204.998 C91.3626704,204.998 91.871332,204.876668 92.142,204.634 Z M104.07,200.224 L104.07,202.17 L99.198,202.17 L99.198,204.186 L103.58,204.186 L103.58,206.048 L99.198,206.048 L99.198,208.078 L104.224,208.078 L104.224,210.01 L97.014,210.01 L97.014,200.224 L104.07,200.224 Z M113.142,210.01 L112.232,207.896 L108.13,207.896 L107.22,210.01 L104.896,210.01 L109.124,200.224 L111.238,200.224 L115.466,210.01 L113.142,210.01 Z M110.188,203.136 L108.956,205.978 L111.406,205.978 L110.188,203.136 Z M120.03,202.114 L120.03,210.01 L117.846,210.01 L117.846,202.114 L115.074,202.114 L115.074,200.224 L122.802,200.224 L122.802,202.114 L120.03,202.114 Z M124.398,200.224 L126.582,200.224 L126.582,210.01 L124.398,210.01 L124.398,200.224 Z M132.602,206.454 L135.094,200.224 L137.46,200.224 L133.526,210.01 L131.678,210.01 L127.744,200.224 L130.11,200.224 L132.602,206.454 Z M145.678,200.224 L145.678,202.17 L140.806,202.17 L140.806,204.186 L145.188,204.186 L145.188,206.048 L140.806,206.048 L140.806,208.078 L145.832,208.078 L145.832,210.01 L138.622,210.01 L138.622,200.224 L145.678,200.224 Z M158.95,201.505 C159.883338,202.359004 160.35,203.546659 160.35,205.068 C160.35,206.589341 159.895005,207.793329 158.985,208.68 C158.074995,209.566671 156.686676,210.01 154.82,210.01 L151.474,210.01 L151.474,200.224 L154.932,200.224 C156.677342,200.224 158.016662,200.650996 158.95,201.505 Z M157.347,207.322 C157.883669,206.817997 158.152,206.085338 158.152,205.124 C158.152,204.162662 157.883669,203.423003 157.347,202.905 C156.810331,202.386997 155.986672,202.128 154.876,202.128 L153.658,202.128 L153.658,208.078 L155.044,208.078 C156.042672,208.078 156.810331,207.826003 157.347,207.322 Z M169.296,200.224 L169.296,202.17 L164.424,202.17 L164.424,204.186 L168.806,204.186 L168.806,206.048 L164.424,206.048 L164.424,208.078 L169.45,208.078 L169.45,210.01 L162.24,210.01 L162.24,200.224 L169.296,200.224 Z M173.685,202.177 C173.474999,202.349668 173.37,202.578332 173.37,202.863 C173.37,203.147668 173.498332,203.373999 173.755,203.542 C174.011668,203.710001 174.604329,203.908332 175.533,204.137 C176.461671,204.365668 177.182664,204.708664 177.696,205.166 C178.209336,205.623336 178.466,206.290662 178.466,207.168 C178.466,208.045338 178.137003,208.756997 177.479,209.303 C176.820997,209.849003 175.955339,210.122 174.882,210.122 C173.332659,210.122 171.93734,209.548006 170.696,208.4 L171.998,206.804 C173.052672,207.728005 174.027996,208.19 174.924,208.19 C175.325335,208.19 175.640332,208.103668 175.869,207.931 C176.097668,207.758332 176.212,207.525001 176.212,207.231 C176.212,206.936999 176.090668,206.703668 175.848,206.531 C175.605332,206.358332 175.12467,206.183334 174.406,206.006 C173.267328,205.735332 172.434336,205.383002 171.907,204.949 C171.379664,204.514998 171.116,203.833671 171.116,202.905 C171.116,201.976329 171.449663,201.260003 172.117,200.756 C172.784337,200.251997 173.617328,200 174.616,200 C175.269337,200 175.922663,200.111999 176.576,200.336 C177.229337,200.560001 177.798664,200.877331 178.284,201.288 L177.178,202.884 C176.328662,202.239997 175.451338,201.918 174.546,201.918 C174.181998,201.918 173.895001,202.004332 173.685,202.177 Z M180.328,200.224 L182.512,200.224 L182.512,210.01 L180.328,210.01 L180.328,200.224 Z M191.276,205.026 L193.474,205.026 L193.474,208.498 C192.503328,209.580672 191.159342,210.122 189.442,210.122 C188.004659,210.122 186.798338,209.646005 185.823,208.694 C184.847662,207.741995 184.36,206.540341 184.36,205.089 C184.36,203.637659 184.856995,202.426672 185.851,201.456 C186.845005,200.485328 188.044326,200 189.449,200 C190.853674,200 192.073995,200.461995 193.11,201.386 L191.976,203.024 C191.537331,202.641331 191.133669,202.377667 190.765,202.233 C190.396331,202.088333 189.997335,202.016 189.568,202.016 C188.737329,202.016 188.037336,202.298331 187.468,202.863 C186.898664,203.427669 186.614,204.171995 186.614,205.096 C186.614,206.020005 186.886997,206.759664 187.433,207.315 C187.979003,207.870336 188.629996,208.148 189.386,208.148 C190.142004,208.148 190.771997,208.003335 191.276,207.714 L191.276,205.026 Z M202.266,200.224 L204.45,200.224 L204.45,210.01 L202.266,210.01 L197.604,203.878 L197.604,210.01 L195.42,210.01 L195.42,200.224 L197.464,200.224 L202.266,206.524 L202.266,200.224 Z M213.914,200.224 L213.914,202.17 L209.042,202.17 L209.042,204.186 L213.424,204.186 L213.424,206.048 L209.042,206.048 L209.042,208.078 L214.068,208.078 L214.068,210.01 L206.858,210.01 L206.858,200.224 L213.914,200.224 Z M223.952,203.472 C223.952,205.040008 223.33134,206.052664 222.09,206.51 L224.568,210.01 L221.88,210.01 L219.71,206.888 L218.198,206.888 L218.198,210.01 L216.014,210.01 L216.014,200.224 L219.724,200.224 C221.245341,200.224 222.33033,200.480664 222.979,200.994 C223.62767,201.507336 223.952,202.333328 223.952,203.472 Z M221.32,204.634 C221.590668,204.391332 221.726,204.006336 221.726,203.479 C221.726,202.951664 221.586001,202.590001 221.306,202.394 C221.025999,202.197999 220.536003,202.1 219.836,202.1 L218.198,202.1 L218.198,204.998 L219.794,204.998 C220.54067,204.998 221.049332,204.876668 221.32,204.634 Z" id="CREATIVE-DESIGNER"></path>
                <path d="M111.763006,182.991329 L91.4739884,182.991329 L91.4739884,147.095376 L60,92.0809249 L81.9797688,92.0809249 L101.618497,125.895954 L121.257225,92.0809249 L143.236994,92.0809249 L111.763006,147.095376 L111.763006,182.991329 Z M211.517341,116.271676 C206.315003,110.549104 199.920558,107.687861 192.333815,107.687861 C184.747072,107.687861 178.352627,110.549104 173.150289,116.271676 C167.947951,121.994248 165.346821,128.908919 165.346821,137.015896 C165.346821,145.122873 167.947951,152.015868 173.150289,157.695087 C178.352627,163.374306 184.747072,166.213873 192.333815,166.213873 C199.920558,166.213873 206.315003,163.374306 211.517341,157.695087 C216.719679,152.015868 219.320809,145.122873 219.320809,137.015896 C219.320809,128.908919 216.719679,121.994248 211.517341,116.271676 Z M192.268786,183.901734 C178.829413,183.901734 167.514497,179.414785 158.323699,170.440751 C149.132902,161.466718 144.537572,150.303535 144.537572,136.950867 C144.537572,123.598199 149.132902,112.435016 158.323699,103.460983 C167.514497,94.4869493 178.829413,90 192.268786,90 C205.70816,90 217.023075,94.4869493 226.213873,103.460983 C235.40467,112.435016 240,123.598199 240,136.950867 C240,150.303535 235.40467,161.466718 226.213873,170.440751 C217.023075,179.414785 205.70816,183.901734 192.268786,183.901734 Z" id="YO"></path>
            </g>
        </g>
    </g>
</svg>